# xmcd CD database file
#
# Track frame offsets:
#	150
#	13518
#	26422
#	45726
#	62374
#	85166
#	102470
#	115870
#	136550
#	152542
#	171222
#	186894
#	203446
#	224158
#	238438
#	256910
#	276422
#	289198
#	302342
#	318254
#
# Disc length: 4436 seconds
#
# Revision: 7
# Processed by: cddbd v1.5.2PL0 Copyright (c) Steve Scherf et al.
# Submitted via: CDex 1.51
#
DISCID=13115214
DTITLE=EXTENDED MIXES - EXTENDED MIXES
DYEAR=2010
DGENRE=Country
TTITLE0=Alan Jackon - Don't Rock The Jukebox
TTITLE1=Roger Brown and Swing City - Swing City
TTITLE2=Jimmy Buffett - Margaritaville
TTITLE3=Rick Trevino - I Only Get This Way With You
TTITLE4=Martina McBride - Life #9 [Dance Mix]
TTITLE5=Shenandoah - If Bubba Can Dance I Can Too (Dance Mix)
TTITLE6=Bobby Helms - Fraulein
TTITLE7=Brooks and Dunn - My Maria [Extended Remix]
TTITLE8=Charle Daniels Band - Boogie Woogie Fiddle Country Blues
TTITLE9=John Michael Montgomery - I Love The Way You Love Me
TTITLE10=George Strait - The Man In Love With You
TTITLE11=Dolly Parton and Friends - Romeo
TTITLE12=Steve Earle - Copperhead Road
TTITLE13=Collin Raye - That's My Story
TTITLE14=Hank Williams, Jr. - Family Tradition
TTITLE15=Wynonna Judd - No One Else On Earth [Dance Mix]
TTITLE16=Tim McGraw - Refried Dreams
TTITLE17=Patsy Cline - I Fall To Pieces
TTITLE18=Ty England - Redneck Son [Remix]
TTITLE19=Lionel Cartwright - My Heart Is Set On You
EXTD=YEAR: 2010
EXTT0=
EXTT1=
EXTT2=
EXTT3=
EXTT4=
EXTT5=
EXTT6=
EXTT7=
EXTT8=
EXTT9=
EXTT10=
EXTT11=
EXTT12=
EXTT13=
EXTT14=
EXTT15=
EXTT16=
EXTT17=
EXTT18=
EXTT19=
PLAYORDER=
